<svg width="150" height="30" viewBox="0 0 150 30" fill="none" xmlns="http://www.w3.org/2000/svg">
<path d="M3.99356 29.9298C1.77735 29.9298 0 28.1305 0 25.9362V3.99357C0 1.77736 1.79929 0 3.99356 0C6.20977 0 7.98712 1.7993 7.98712 3.99357V25.9362C8.00907 28.1524 6.20977 29.9298 3.99356 29.9298Z" fill="#F99BAD"/>
<path d="M20.1872 29.9298C17.971 29.9298 16.1937 28.1305 16.1937 25.9362V3.99357C16.1937 1.77736 17.993 0 20.1872 0C22.4034 0 24.1808 1.7993 24.1808 3.99357V25.9362C24.1808 28.1524 22.3815 29.9298 20.1872 29.9298Z" fill="#EF0633"/>
<path d="M12.0026 10.6423H24.2027C26.397 10.6423 28.1963 12.4197 28.1963 14.6359C28.1963 16.8521 26.419 18.6295 24.2027 18.6295H12.0026C9.78642 18.6295 8.00907 20.4288 8.00907 22.6669V25.9803C8.00907 28.1745 6.18782 29.9738 3.99356 29.9738C1.79929 29.9738 0 28.1965 0 25.9803V22.645C0 16.0402 5.37595 10.6423 12.0026 10.6423Z" fill="#B30526"/>
<path d="M57.2484 22.2279H53.4084V14.7674H44.9386V22.2279H41.1205V4.45435H44.9386V11.4321H53.4084V4.45435H57.2484V22.2279Z" fill="white"/>
<path d="M75.3511 22.2279H70.9625L67.4298 15.9084H64.6211V22.2279H60.8031V4.45435H69.2071C71.0503 4.45435 72.5205 4.98098 73.5957 6.05617C74.6709 7.13136 75.2194 8.4918 75.2194 10.1814C75.2194 11.6296 74.8464 12.8145 74.0784 13.7141C73.3104 14.6138 72.3888 15.2063 71.2917 15.4476L75.3511 22.2279ZM68.6586 12.5951C69.4485 12.5951 70.0849 12.3757 70.5895 11.9368C71.0942 11.4979 71.3356 10.9274 71.3356 10.1814C71.3356 9.45728 71.0942 8.86483 70.5895 8.42597C70.0849 7.98712 69.4485 7.76769 68.6586 7.76769H64.6431V12.5512H68.6586V12.5951Z" fill="white"/>
<path d="M93.366 22.2279H91.6545L87.3537 6.95581L83.053 22.2279H81.3414L76.2068 4.45435H77.9184L82.2411 20.0995L86.6515 4.45435H88.0559L92.4444 20.0995L96.7671 4.45435H98.4786L93.366 22.2279Z" fill="white"/>
<path d="M108.726 22.5569C106.115 22.5569 104.03 21.6792 102.406 19.9457C100.805 18.2122 99.9927 16.018 99.9927 13.3629C99.9927 10.7079 100.805 8.53554 102.406 6.78013C104.008 5.04666 106.115 4.16895 108.726 4.16895C111.315 4.16895 113.4 5.04666 115.023 6.78013C116.647 8.5136 117.437 10.7079 117.437 13.3629C117.437 16.018 116.625 18.2122 115.023 19.9457C113.4 21.6792 111.315 22.5569 108.726 22.5569ZM108.726 21.1745C110.832 21.1745 112.544 20.4504 113.86 18.9802C115.177 17.5101 115.835 15.645 115.835 13.3629C115.835 11.0809 115.177 9.19381 113.882 7.7456C112.588 6.29738 110.854 5.55133 108.726 5.55133C106.575 5.55133 104.842 6.27544 103.569 7.7456C102.275 9.19381 101.638 11.0809 101.638 13.3629C101.638 15.645 102.275 17.5101 103.569 18.9802C104.842 20.4285 106.575 21.1745 108.726 21.1745Z" fill="white"/>
<path d="M133.565 22.2279H131.7L126.675 14.8771H122.725V22.2279H121.189V4.45435H127.882C129.462 4.45435 130.756 4.91515 131.788 5.85868C132.819 6.80222 133.324 8.05295 133.324 9.63282C133.324 11.1688 132.841 12.3976 131.875 13.3192C130.91 14.2188 129.747 14.7016 128.343 14.7674L133.565 22.2279ZM127.75 13.4947C128.935 13.4947 129.901 13.1436 130.625 12.4195C131.371 11.6954 131.722 10.7738 131.722 9.65476C131.722 8.53568 131.349 7.61409 130.625 6.91193C129.879 6.20976 128.935 5.83674 127.75 5.83674H122.725V13.4728H127.75V13.4947Z" fill="white"/>
<path d="M150 22.2279H148.025L140.63 13.8677L138.634 16.0181V22.2279H137.098V4.45435H138.634V14.175L147.301 4.45435H149.276L141.64 12.9242L150 22.2279Z" fill="white"/>
</svg>
